# Blender 3.6.2
# www.blender.org
mtllib CubeModified.mtl
o Cube
v 0.500000 -0.500000 -0.500000
v 0.500000 0.500000 -0.500000
v 0.500000 -0.500000 0.500000
v 0.500000 0.500000 0.500000
v -0.500000 -0.500000 -0.500000
v -0.500000 0.500000 -0.500000
v -0.500000 -0.500000 0.500000
v -0.500000 0.500000 0.500000
v 0.500000 -0.500000 0.000000
v 0.500000 0.000000 -0.500000
v 0.500000 0.500000 0.000000
v 0.500000 0.000000 0.500000
v 0.000000 -0.500000 0.500000
v 0.000000 0.500000 0.500000
v -0.500000 0.000000 0.500000
v -0.500000 -0.500000 0.000000
v -0.500000 0.500000 0.000000
v -0.500000 0.000000 -0.500000
v 0.000000 -0.500000 -0.500000
v 0.000000 0.500000 -0.500000
v 0.000000 0.384842 0.000000
v 0.000000 -0.500000 0.000000
v 0.000000 0.000000 -0.500000
v -0.500000 0.000000 0.000000
v 0.000000 0.000000 0.500000
v 0.500000 0.000000 0.000000
v 0.500000 -0.500000 -0.250000
v 0.500000 0.250000 -0.500000
v 0.500000 0.500000 0.250000
v 0.500000 -0.250000 0.500000
v 0.250000 -0.500000 0.500000
v -0.250000 0.500000 0.500000
v -0.500000 -0.250000 0.500000
v -0.500000 -0.500000 0.250000
v -0.500000 0.500000 -0.250000
v -0.500000 -0.250000 -0.500000
v -0.250000 -0.500000 -0.500000
v 0.250000 0.500000 -0.500000
v 0.500000 -0.500000 0.250000
v 0.500000 -0.250000 -0.500000
v 0.500000 0.500000 -0.250000
v 0.500000 0.250000 0.500000
v -0.250000 -0.500000 0.500000
v 0.250000 0.500000 0.500000
v -0.500000 0.250000 0.500000
v -0.500000 -0.500000 -0.250000
v -0.500000 0.500000 0.250000
v -0.500000 0.250000 -0.500000
v 0.250000 -0.500000 -0.500000
v -0.250000 0.500000 -0.500000
v 0.000000 0.500000 -0.250000
v 0.000000 0.500000 0.250000
v -0.250000 0.500000 0.000000
v 0.250000 0.500000 0.000000
v 0.000000 -0.500000 -0.250000
v 0.000000 -0.500000 0.250000
v 0.250000 -0.500000 0.000000
v -0.250000 -0.500000 0.000000
v 0.250000 0.000000 -0.500000
v -0.250000 0.000000 -0.500000
v 0.000000 -0.250000 -0.500000
v 0.000000 0.250000 -0.500000
v -0.500000 0.000000 -0.250000
v -0.500000 0.000000 0.250000
v -0.500000 -0.250000 0.000000
v -0.500000 0.250000 0.000000
v -0.250000 0.000000 0.500000
v 0.250000 0.000000 0.500000
v 0.000000 -0.250000 0.500000
v 0.000000 0.250000 0.500000
v 0.500000 0.000000 0.250000
v 0.500000 0.000000 -0.250000
v 0.500000 -0.250000 0.000000
v 0.500000 0.250000 0.000000
v 0.500000 0.250000 -0.250000
v 0.500000 -0.250000 -0.250000
v 0.500000 -0.250000 0.250000
v 0.250000 0.250000 0.500000
v 0.250000 -0.250000 0.500000
v -0.250000 -0.250000 0.500000
v -0.500000 0.250000 0.250000
v -0.500000 -0.250000 0.250000
v -0.500000 -0.250000 -0.250000
v -0.250000 0.250000 -0.500000
v -0.250000 -0.250000 -0.500000
v 0.250000 -0.250000 -0.500000
v -0.250000 -0.500000 0.250000
v 0.250000 -0.500000 0.250000
v 0.250000 -0.500000 -0.250000
v 0.250000 0.500000 0.250000
v -0.250000 0.500000 0.250000
v -0.250000 0.500000 -0.250000
v 0.250000 0.500000 -0.250000
v -0.250000 -0.500000 -0.250000
v 0.250000 0.250000 -0.500000
v -0.500000 0.250000 -0.250000
v -0.250000 0.250000 0.500000
v 0.500000 0.250000 0.250000
vn 1.0000 -0.0000 -0.0000
vn -0.0000 -0.0000 1.0000
vn -1.0000 -0.0000 -0.0000
vn -0.0000 -0.0000 -1.0000
vn -0.0000 -1.0000 -0.0000
vn -0.0000 1.0000 -0.0000
vn -0.3860 0.8379 -0.3860
vn -0.3860 0.8379 0.3860
vn 0.3860 0.8379 -0.3860
vn 0.3860 0.8379 0.3860
s 0
f 29//1 42//1 98//1
f 32//2 45//2 97//2
f 35//3 48//3 96//3
f 38//4 28//4 95//4
f 46//5 37//5 94//5
f 41//6 38//6 93//6
f 51//6 50//6 92//6
f 52//6 53//6 91//6
f 29//6 54//6 90//6
f 55//5 49//5 89//5
f 56//5 57//5 88//5
f 34//5 58//5 87//5
f 59//4 40//4 86//4
f 60//4 61//4 85//4
f 50//4 62//4 84//4
f 63//3 36//3 83//3
f 64//3 65//3 82//3
f 47//3 66//3 81//3
f 67//2 33//2 80//2
f 68//2 69//2 79//2
f 44//2 70//2 78//2
f 71//1 30//1 77//1
f 72//1 73//1 76//1
f 41//1 74//1 75//1
f 75//1 26//1 72//1
f 28//1 72//1 10//1
f 2//1 75//1 28//1
f 76//1 9//1 27//1
f 40//1 27//1 1//1
f 10//1 76//1 40//1
f 77//1 3//1 39//1
f 73//1 39//1 9//1
f 26//1 77//1 73//1
f 78//2 25//2 68//2
f 42//2 68//2 12//2
f 4//2 78//2 42//2
f 79//2 13//2 31//2
f 30//2 31//2 3//2
f 12//2 79//2 30//2
f 80//2 7//2 43//2
f 69//2 43//2 13//2
f 25//2 80//2 69//2
f 81//3 24//3 64//3
f 45//3 64//3 15//3
f 8//3 81//3 45//3
f 82//3 16//3 34//3
f 33//3 34//3 7//3
f 15//3 82//3 33//3
f 83//3 5//3 46//3
f 65//3 46//3 16//3
f 24//3 83//3 65//3
f 84//4 23//4 60//4
f 48//4 60//4 18//4
f 6//4 84//4 48//4
f 85//4 19//4 37//4
f 36//4 37//4 5//4
f 18//4 85//4 36//4
f 86//4 1//4 49//4
f 61//4 49//4 19//4
f 23//4 86//4 61//4
f 87//5 22//5 56//5
f 43//5 56//5 13//5
f 7//5 87//5 43//5
f 88//5 9//5 39//5
f 31//5 39//5 3//5
f 13//5 88//5 31//5
f 89//5 1//5 27//5
f 57//5 27//5 9//5
f 22//5 89//5 57//5
f 52//7 54//7 21//7
f 44//6 52//6 14//6
f 4//6 90//6 44//6
f 91//6 17//6 47//6
f 32//6 47//6 8//6
f 14//6 91//6 32//6
f 92//6 6//6 35//6
f 53//6 35//6 17//6
f 53//6 51//6 92//6
f 93//6 20//6 51//6
f 54//8 51//8 21//8
f 11//6 93//6 54//6
f 94//5 19//5 55//5
f 58//5 55//5 22//5
f 16//5 94//5 58//5
f 95//4 10//4 59//4
f 62//4 59//4 23//4
f 20//4 95//4 62//4
f 96//3 18//3 63//3
f 66//3 63//3 24//3
f 17//3 96//3 66//3
f 97//2 15//2 67//2
f 70//2 67//2 25//2
f 14//2 97//2 70//2
f 98//1 12//1 71//1
f 74//1 71//1 26//1
f 11//1 98//1 74//1
f 29//1 4//1 42//1
f 32//2 8//2 45//2
f 35//3 6//3 48//3
f 38//4 2//4 28//4
f 46//5 5//5 37//5
f 41//6 2//6 38//6
f 51//6 20//6 50//6
f 52//9 21//9 53//9
f 29//6 11//6 54//6
f 55//5 19//5 49//5
f 56//5 22//5 57//5
f 34//5 16//5 58//5
f 59//4 10//4 40//4
f 60//4 23//4 61//4
f 50//4 20//4 62//4
f 63//3 18//3 36//3
f 64//3 24//3 65//3
f 47//3 17//3 66//3
f 67//2 15//2 33//2
f 68//2 25//2 69//2
f 44//2 14//2 70//2
f 71//1 12//1 30//1
f 72//1 26//1 73//1
f 41//1 11//1 74//1
f 75//1 74//1 26//1
f 28//1 75//1 72//1
f 2//1 41//1 75//1
f 76//1 73//1 9//1
f 40//1 76//1 27//1
f 10//1 72//1 76//1
f 77//1 30//1 3//1
f 73//1 77//1 39//1
f 26//1 71//1 77//1
f 78//2 70//2 25//2
f 42//2 78//2 68//2
f 4//2 44//2 78//2
f 79//2 69//2 13//2
f 30//2 79//2 31//2
f 12//2 68//2 79//2
f 80//2 33//2 7//2
f 69//2 80//2 43//2
f 25//2 67//2 80//2
f 81//3 66//3 24//3
f 45//3 81//3 64//3
f 8//3 47//3 81//3
f 82//3 65//3 16//3
f 33//3 82//3 34//3
f 15//3 64//3 82//3
f 83//3 36//3 5//3
f 65//3 83//3 46//3
f 24//3 63//3 83//3
f 84//4 62//4 23//4
f 48//4 84//4 60//4
f 6//4 50//4 84//4
f 85//4 61//4 19//4
f 36//4 85//4 37//4
f 18//4 60//4 85//4
f 86//4 40//4 1//4
f 61//4 86//4 49//4
f 23//4 59//4 86//4
f 87//5 58//5 22//5
f 43//5 87//5 56//5
f 7//5 34//5 87//5
f 88//5 57//5 9//5
f 31//5 88//5 39//5
f 13//5 56//5 88//5
f 89//5 49//5 1//5
f 57//5 89//5 27//5
f 22//5 55//5 89//5
f 52//6 90//6 54//6
f 44//6 90//6 52//6
f 4//6 29//6 90//6
f 91//6 53//6 17//6
f 32//6 91//6 47//6
f 14//6 52//6 91//6
f 92//6 50//6 6//6
f 53//6 92//6 35//6
f 53//10 21//10 51//10
f 93//6 38//6 20//6
f 54//6 93//6 51//6
f 11//6 41//6 93//6
f 94//5 37//5 19//5
f 58//5 94//5 55//5
f 16//5 46//5 94//5
f 95//4 28//4 10//4
f 62//4 95//4 59//4
f 20//4 38//4 95//4
f 96//3 48//3 18//3
f 66//3 96//3 63//3
f 17//3 35//3 96//3
f 97//2 45//2 15//2
f 70//2 97//2 67//2
f 14//2 32//2 97//2
f 98//1 42//1 12//1
f 74//1 98//1 71//1
f 11//1 29//1 98//1
