# Blender 3.6.2
# www.blender.org
o Cube
v -0.500000 -0.500000 1.000000
v -0.500000 0.500000 1.000000
v -0.500000 -0.500000 -1.000000
v -0.500000 0.500000 -1.000000
v 0.500000 -0.500000 1.000000
v 0.500000 0.500000 1.000000
v 0.500000 -0.500000 -1.000000
v 0.500000 0.500000 -1.000000
v -0.464645 -0.464645 1.000000
v -0.464645 0.464645 1.000000
v -0.471132 -0.471132 -0.971132
v -0.471132 0.471132 -0.971132
v 0.464645 -0.464645 1.000000
v 0.464645 0.464645 1.000000
v 0.471132 -0.471132 -0.971132
v 0.471132 0.471132 -0.971132
vn -1.0000 -0.0000 -0.0000
vn -0.0000 -0.0000 -1.0000
vn 1.0000 -0.0000 -0.0000
vn -0.0000 -1.0000 -0.0000
vn -0.0000 1.0000 -0.0000
vn 1.0000 -0.0000 -0.0033
vn -0.0000 -0.0000 1.0000
vn -1.0000 -0.0000 -0.0033
vn -0.0000 1.0000 -0.0033
vn -0.0000 -1.0000 -0.0033
s 0
f 2//1 3//1 1//1
f 4//2 7//2 3//2
f 8//3 5//3 7//3
f 7//4 1//4 3//4
f 4//5 6//5 8//5
f 11//6 10//6 9//6
f 15//7 12//7 11//7
f 13//8 16//8 15//8
f 9//9 15//9 11//9
f 14//10 12//10 16//10
f 1//7 10//7 2//7
f 6//7 13//7 5//7
f 5//7 9//7 1//7
f 2//7 14//7 6//7
f 2//1 4//1 3//1
f 4//2 8//2 7//2
f 8//3 6//3 5//3
f 7//4 5//4 1//4
f 4//5 2//5 6//5
f 11//6 12//6 10//6
f 15//7 16//7 12//7
f 13//8 14//8 16//8
f 9//9 13//9 15//9
f 14//10 10//10 12//10
f 1//7 9//7 10//7
f 6//7 14//7 13//7
f 5//7 13//7 9//7
f 2//7 10//7 14//7
